# xmcd CD database file
#
# Track frame offsets:
#	150
#	23240
#	39072
#	62249
#	81279
#	99639
#	122586
#	145069
#	167477
#	183950
#	202794
#	220017
#	241183
#	259795
#	282621
#	298743
#	316486
#
# Disc length: 4496 seconds
#
# Revision: 0
# Processed by: cddbd v1.5.2PL0 Copyright (c) Steve Scherf et al.
# Submitted via: CDex 1.70beta2
#
DISCID=ef118e11
DTITLE=Various Artist - Hörvergnügen 6
DYEAR=2009
DGENRE=Jazz
TTITLE0=Nils Wülker - Uphill
TTITLE1=Céline Verny Quartet - Amoureuse
TTITLE2=Joachim Schoenecker Sextett - Midnight Blue
TTITLE3=Bruno Böhmer Camacho Trio - Recuerdos
TTITLE4=Jamaram ft. Don Caramelo - Out My Window
TTITLE5=Thomas Siffling Trio ft. Xaver Fischer - 11.03
TTITLE6=Sunday Night Orchestra (Ed Partyka) - Stolen Blues
TTITLE7=Anke Helfrich - Swiss Connection
TTITLE8=Jens Bunge ft. Coco Zhao - Wang Chun Feng
TTITLE9=Croomp - Zebra im Schnee
TTITLE10=Bodek Janke - Boomboom Multikulti
TTITLE11=Helge Lien Trio - Gamut Warning
TTITLE12=Cyminology - Sendegi
TTITLE13=Wolfgang Schlüter Quartet - Yes I've Met Miss Jones
TTITLE14=The Klezmatics - Perets-Tants
TTITLE15=Xóchil and Nils Wülker - Gute Mächte
TTITLE16=Dubdiver - Box of Secrets
EXTD=YEAR: 2009
EXTT0=
EXTT1=
EXTT2=
EXTT3=
EXTT4=
EXTT5=
EXTT6=
EXTT7=
EXTT8=
EXTT9=
EXTT10=
EXTT11=
EXTT12=
EXTT13=
EXTT14=
EXTT15=
EXTT16=
PLAYORDER=
